<?xml version="1.0" encoding="UTF-8" standalone="no"?>
<!-- Created with Inkscape (http://www.inkscape.org/) -->

<svg
   xmlns:dc="http://purl.org/dc/elements/1.1/"
   xmlns:cc="http://creativecommons.org/ns#"
   xmlns:rdf="http://www.w3.org/1999/02/22-rdf-syntax-ns#"
   xmlns:svg="http://www.w3.org/2000/svg"
   xmlns="http://www.w3.org/2000/svg"
   xmlns:sodipodi="http://sodipodi.sourceforge.net/DTD/sodipodi-0.dtd"
   xmlns:inkscape="http://www.inkscape.org/namespaces/inkscape"
   width="1748.1593"
   height="286.16202"
   id="svg3009"
   version="1.1"
   inkscape:version="0.92.5 (2060ec1f9f, 2020-04-08)"
   sodipodi:docname="Копие на logo Telebid Pro light.svg">
  <defs
     id="defs3011" />
  <sodipodi:namedview
     id="base"
     pagecolor="#ffffff"
     bordercolor="#666666"
     borderopacity="1.0"
     inkscape:pageopacity="0.0"
     inkscape:pageshadow="2"
     inkscape:zoom="0.54277344"
     inkscape:cx="881.96353"
     inkscape:cy="162.7536"
     inkscape:document-units="px"
     inkscape:current-layer="layer1"
     showgrid="false"
     inkscape:window-width="1920"
     inkscape:window-height="1019"
     inkscape:window-x="0"
     inkscape:window-y="0"
     inkscape:window-maximized="1"
     fit-margin-top="0"
     fit-margin-left="0"
     fit-margin-right="0"
     fit-margin-bottom="0" />
  <metadata
     id="metadata3014">
    <rdf:RDF>
      <cc:Work
         rdf:about="">
        <dc:format>image/svg+xml</dc:format>
        <dc:type
           rdf:resource="http://purl.org/dc/dcmitype/StillImage" />
        <dc:title></dc:title>
      </cc:Work>
    </rdf:RDF>
  </metadata>
  <g
     inkscape:label="Layer 1"
     inkscape:groupmode="layer"
     id="layer1"
     transform="translate(364.26924,-295.69278)">
    <path
       inkscape:connector-curvature="0"
       id="path4147"
       style="font-style:normal;font-variant:normal;font-weight:normal;font-stretch:normal;font-size:medium;line-height:125%;font-family:Digital-Medium;-inkscape-font-specification:'Digital-Medium Bold';text-align:start;letter-spacing:0px;word-spacing:0px;writing-mode:lr-tb;text-anchor:start;fill:#000000;fill-opacity:1;stroke:none"
       d="m -364.26924,295.69278 h 165.90252 v 41.67408 h -62.31267 V 581.8548 h -41.67408 V 337.36686 h -61.91577 z" />
    <path
       inkscape:connector-curvature="0"
       id="path4149"
       style="font-style:normal;font-variant:normal;font-weight:normal;font-stretch:normal;font-size:medium;line-height:125%;font-family:Digital-Medium;-inkscape-font-specification:'Digital-Medium Bold';text-align:start;letter-spacing:0px;word-spacing:0px;writing-mode:lr-tb;text-anchor:start;fill:#000000;fill-opacity:1;stroke:none"
       d="m -151.50198,581.8548 q -25.79824,0 -42.46788,-15.47895 -7.93792,-7.93792 -11.90688,-17.86032 -3.96896,-9.9224 -3.96896,-23.41686 v -96.04883 q 0,-61.91578 65.88474,-61.91578 h 53.184063 q 26.988928,0 41.674079,14.68516 15.082048,14.28825 15.082048,40.48339 v 25.40134 l -140.10429,65.09094 v 7.14413 l 1.19069,9.12861 1.19069,5.95344 q 0.3969,1.19069 0.79379,2.38138 0.3969,0.79379 2.38138,4.76275 2.38137,3.96896 18.65411,3.96896 h 117.87811 v 35.72064 z m -22.62308,-108.74951 103.986755,-48.42131 v -3.57206 q 0,-9.9224 -4.762752,-13.89136 -4.762752,-4.36586 -17.066528,-4.36586 H -150.3113 q -23.81376,0 -23.81376,26.98893 z" />
    <path
       inkscape:connector-curvature="0"
       id="path4151"
       style="font-style:normal;font-variant:normal;font-weight:normal;font-stretch:normal;font-size:medium;line-height:125%;font-family:Digital-Medium;-inkscape-font-specification:'Digital-Medium Bold';text-align:start;letter-spacing:0px;word-spacing:0px;writing-mode:lr-tb;text-anchor:start;fill:#000000;fill-opacity:1;stroke:none"
       d="m 11.857917,295.69278 h 35.72064 V 581.8548 h -35.72064 z" />
    <path
       inkscape:connector-curvature="0"
       id="path4153"
       style="font-style:normal;font-variant:normal;font-weight:normal;font-stretch:normal;font-size:medium;line-height:125%;font-family:Digital-Medium;-inkscape-font-specification:'Digital-Medium Bold';text-align:start;letter-spacing:0px;word-spacing:0px;writing-mode:lr-tb;text-anchor:start;fill:#000000;fill-opacity:1;stroke:none"
       d="m 156.24744,581.8548 q -25.79824,0 -42.46788,-15.47895 -7.93792,-7.93792 -11.90688,-17.86032 -3.968956,-9.9224 -3.968956,-23.41686 v -96.04883 q 0,-61.91578 65.884736,-61.91578 h 53.18406 q 26.98893,0 41.67408,14.68516 15.08205,14.28825 15.08205,40.48339 v 25.40134 l -140.10429,65.09094 v 7.14413 l 1.19069,9.12861 1.19069,5.95344 q 0.3969,1.19069 0.79379,2.38138 0.3969,0.79379 2.38138,4.76275 2.38137,3.96896 18.65411,3.96896 H 275.71313 V 581.8548 Z M 133.62436,473.10529 237.61111,424.68398 v -3.57206 q 0,-9.9224 -4.76275,-13.89136 -4.76275,-4.36586 -17.06653,-4.36586 h -58.34371 q -23.81376,0 -23.81376,26.98893 z" />
    <path
       inkscape:connector-curvature="0"
       id="path4155"
       style="font-style:normal;font-variant:normal;font-weight:normal;font-stretch:normal;font-size:medium;line-height:125%;font-family:Digital-Medium;-inkscape-font-specification:'Digital-Medium Bold';text-align:start;letter-spacing:0px;word-spacing:0px;writing-mode:lr-tb;text-anchor:start;fill:#000000;fill-opacity:1;stroke:none"
       d="m 438.27924,367.13406 q 27.78272,0 42.86477,13.89136 15.08205,13.89136 15.08205,40.48339 v 103.98676 q 0,24.60755 -15.47895,40.48339 -15.47894,15.87584 -37.70512,15.87584 H 372.7914 q -21.82928,0 -37.70512,-17.46343 -15.47894,-17.46342 -15.47894,-42.86476 V 295.69278 h 35.72064 v 71.44128 z m -59.5344,179.0001 h 62.31267 q 7.93792,0 13.49447,-6.35034 5.95344,-6.35033 5.95344,-16.27273 v -96.44573 q 0,-24.21066 -23.41687,-24.21066 h -58.74061 q -23.01996,0 -23.01996,23.41687 v 94.06435 q 0,11.11309 5.95344,18.65411 6.35033,7.14413 17.46342,7.14413 z" />
    <path
       inkscape:connector-curvature="0"
       id="path4157"
       style="font-style:normal;font-variant:normal;font-weight:normal;font-stretch:normal;font-size:medium;line-height:125%;font-family:Digital-Medium;-inkscape-font-specification:'Digital-Medium Bold';text-align:start;letter-spacing:0px;word-spacing:0px;writing-mode:lr-tb;text-anchor:start;fill:#000000;fill-opacity:1;stroke:none"
       d="m 546.34039,367.13406 h 35.32374 V 581.8548 h -35.32374 z m 16.66963,-71.44128 q 10.71619,0 17.86032,7.54103 7.54102,7.54102 7.54102,17.46342 0,9.52551 -7.14413,17.06653 -7.14413,7.54102 -17.46342,7.54102 -9.5255,0 -17.06653,-7.14412 -7.54102,-7.14413 -7.54102,-17.46343 0,-11.11309 6.74723,-17.86032 6.74723,-7.14413 17.06653,-7.14413 z" />
    <path
       inkscape:connector-curvature="0"
       id="path4159"
       style="font-style:normal;font-variant:normal;font-weight:normal;font-stretch:normal;font-size:medium;line-height:125%;font-family:Digital-Medium;-inkscape-font-specification:'Digital-Medium Bold';text-align:start;letter-spacing:0px;word-spacing:0px;writing-mode:lr-tb;text-anchor:start;fill:#000000;fill-opacity:1;stroke:none"
       d="m 809.40184,521.52661 q 0,25.40134 -15.87584,42.86476 -15.47895,17.46343 -37.30823,17.46343 h -70.25059 q -9.12861,0 -20.24169,-4.76275 -10.7162,-4.76276 -21.82928,-15.47895 -11.11309,-10.71619 -11.11309,-36.11753 V 421.50881 q 0,-25.79823 14.68515,-40.08649 15.08205,-14.28826 43.26166,-14.28826 h 82.95127 v -71.44128 h 35.72064 z m -121.84707,24.60755 h 62.70956 q 10.3193,0 16.66964,-7.14413 6.74723,-7.54102 6.74723,-18.65411 v -94.06435 q 0,-23.41687 -23.01997,-23.41687 h -58.74061 q -23.41686,0 -23.41686,24.21066 v 96.44573 q 0,9.1286 5.55654,15.87584 5.55655,6.74723 13.49447,6.74723 z" />
    <path
       inkscape:connector-curvature="0"
       id="path4161"
       style="font-style:italic;font-variant:normal;font-weight:500;font-stretch:normal;font-size:medium;line-height:125%;font-family:Sol;-inkscape-font-specification:'Sans Italic';text-align:start;letter-spacing:0px;word-spacing:0px;writing-mode:lr-tb;text-anchor:start;fill:#ff6600;fill-opacity:1;stroke:none"
       d="m 859.913,295.69278 h 123.43466 q 23.41684,0 36.11754,3.57207 13.0976,3.57206 28.5765,17.46342 15.8758,13.49447 15.8758,47.62752 v 40.88029 q 0,32.94237 -20.2417,52.39027 -19.8448,19.05101 -55.56539,19.05101 H 901.19019 V 581.8548 H 859.913 Z m 41.27719,139.70739 h 86.52332 q 18.65409,0 26.98889,-7.14412 8.3349,-7.14413 8.3349,-25.00445 v -36.91133 q 0,-15.47894 -7.938,-22.22617 -7.9379,-6.74724 -26.592,-6.74724 h -87.31711 z" />
    <path
       inkscape:connector-curvature="0"
       id="path4163"
       style="font-style:italic;font-variant:normal;font-weight:500;font-stretch:normal;font-size:medium;line-height:125%;font-family:Sol;-inkscape-font-specification:'Sans Italic';text-align:start;letter-spacing:0px;word-spacing:0px;writing-mode:lr-tb;text-anchor:start;fill:#ff6600;fill-opacity:1;stroke:none"
       d="m 1100.2211,423.89019 q 0,-28.57651 11.9069,-42.46787 5.5565,-5.55654 17.8603,-9.9224 12.3038,-4.36586 23.02,-4.36586 h 20.2417 v 36.11754 h -17.4635 q -19.8448,0 -19.8448,21.43238 V 581.8548 h -35.7206 z" />
    <path
       inkscape:connector-curvature="0"
       id="path4165"
       style="font-style:italic;font-variant:normal;font-weight:500;font-stretch:normal;font-size:medium;line-height:125%;font-family:Sol;-inkscape-font-specification:'Sans Italic';text-align:start;letter-spacing:0px;word-spacing:0px;writing-mode:lr-tb;text-anchor:start;fill:#ff6600;fill-opacity:1;stroke:none"
       d="M 1204.0962,528.67073 V 417.53985 q 0,-23.41686 15.0821,-36.91132 15.4789,-13.49447 42.071,-13.49447 h 65.4878 q 25.7982,0 41.2772,13.89136 15.8758,13.49447 15.8758,36.51443 v 111.52778 q 0,22.62307 -16.2727,37.70512 -16.2728,15.08205 -40.8803,15.08205 h -65.4878 q -25.0045,0 -41.2772,-14.68515 -15.8759,-14.68516 -15.8759,-38.49892 z m 61.122,17.46343 h 57.5499 q 25.4014,0 25.4014,-26.98893 v -90.49229 q 0,-25.79824 -25.4014,-25.79824 h -57.5499 q -25.4013,0 -25.4013,25.79824 v 88.90471 q 0,14.68515 5.9534,21.82928 5.9534,6.74723 19.4479,6.74723 z" />
  </g>
</svg>
